<mxfile host="app.diagrams.net" agent="Mozilla/5.0 (Windows NT 10.0; Win64; x64) AppleWebKit/537.36 (KHTML, like Gecko) Chrome/130.0.0.0 Safari/537.36" version="24.8.6">
  <diagram name="Сторінка-1" id="9XLp76c66CHmXLsAxaln">
    <mxGraphModel grid="1" page="1" gridSize="10" guides="1" tooltips="1" connect="1" arrows="1" fold="1" pageScale="1" pageWidth="827" pageHeight="1169" math="0" shadow="0">
      <root>
        <mxCell id="0" />
        <mxCell id="1" parent="0" />
        <mxCell id="biP-UQdh9MVSotHNAcDJ-5" value="" style="edgeStyle=orthogonalEdgeStyle;rounded=0;orthogonalLoop=1;jettySize=auto;html=1;" edge="1" parent="1" source="biP-UQdh9MVSotHNAcDJ-1" target="biP-UQdh9MVSotHNAcDJ-4">
          <mxGeometry relative="1" as="geometry" />
        </mxCell>
        <mxCell id="biP-UQdh9MVSotHNAcDJ-1" value="double n,a" style="rounded=0;whiteSpace=wrap;html=1;" vertex="1" parent="1">
          <mxGeometry x="354" y="500" width="120" height="60" as="geometry" />
        </mxCell>
        <mxCell id="biP-UQdh9MVSotHNAcDJ-3" style="edgeStyle=orthogonalEdgeStyle;rounded=0;orthogonalLoop=1;jettySize=auto;html=1;entryX=0.5;entryY=0;entryDx=0;entryDy=0;" edge="1" parent="1" source="biP-UQdh9MVSotHNAcDJ-2" target="biP-UQdh9MVSotHNAcDJ-1">
          <mxGeometry relative="1" as="geometry" />
        </mxCell>
        <mxCell id="biP-UQdh9MVSotHNAcDJ-2" value="Start" style="ellipse;whiteSpace=wrap;html=1;fillColor=#d5e8d4;strokeColor=#82b366;" vertex="1" parent="1">
          <mxGeometry x="354" y="380" width="120" height="80" as="geometry" />
        </mxCell>
        <mxCell id="biP-UQdh9MVSotHNAcDJ-7" value="" style="edgeStyle=orthogonalEdgeStyle;rounded=0;orthogonalLoop=1;jettySize=auto;html=1;" edge="1" parent="1" source="biP-UQdh9MVSotHNAcDJ-4" target="biP-UQdh9MVSotHNAcDJ-6">
          <mxGeometry relative="1" as="geometry" />
        </mxCell>
        <mxCell id="biP-UQdh9MVSotHNAcDJ-4" value="c" style="shape=parallelogram;perimeter=parallelogramPerimeter;whiteSpace=wrap;html=1;fixedSize=1;rounded=0;" vertex="1" parent="1">
          <mxGeometry x="354" y="640" width="120" height="60" as="geometry" />
        </mxCell>
        <mxCell id="biP-UQdh9MVSotHNAcDJ-8" style="edgeStyle=orthogonalEdgeStyle;rounded=0;orthogonalLoop=1;jettySize=auto;html=1;" edge="1" parent="1" source="biP-UQdh9MVSotHNAcDJ-6" target="biP-UQdh9MVSotHNAcDJ-9">
          <mxGeometry relative="1" as="geometry">
            <mxPoint x="414" y="900" as="targetPoint" />
          </mxGeometry>
        </mxCell>
        <mxCell id="biP-UQdh9MVSotHNAcDJ-6" value="a = 1/(pow(2,n))+1/(pow(3,n))" style="whiteSpace=wrap;html=1;rounded=0;" vertex="1" parent="1">
          <mxGeometry x="316" y="760" width="196" height="80" as="geometry" />
        </mxCell>
        <mxCell id="biP-UQdh9MVSotHNAcDJ-9" value="a" style="shape=parallelogram;perimeter=parallelogramPerimeter;whiteSpace=wrap;html=1;fixedSize=1;" vertex="1" parent="1">
          <mxGeometry x="354" y="870" width="120" height="60" as="geometry" />
        </mxCell>
        <mxCell id="biP-UQdh9MVSotHNAcDJ-11" style="edgeStyle=orthogonalEdgeStyle;rounded=0;orthogonalLoop=1;jettySize=auto;html=1;entryX=0.5;entryY=1;entryDx=0;entryDy=0;" edge="1" parent="1" source="biP-UQdh9MVSotHNAcDJ-10" target="biP-UQdh9MVSotHNAcDJ-9">
          <mxGeometry relative="1" as="geometry" />
        </mxCell>
        <mxCell id="biP-UQdh9MVSotHNAcDJ-10" value="End" style="ellipse;whiteSpace=wrap;html=1;fillColor=#f8cecc;strokeColor=#b85450;" vertex="1" parent="1">
          <mxGeometry x="354" y="980" width="120" height="80" as="geometry" />
        </mxCell>
      </root>
    </mxGraphModel>
  </diagram>
</mxfile>
